<?xml version="1.0" encoding="UTF-8" standalone="no"?>
<!-- Created with Inkscape (http://www.inkscape.org/) -->

<svg
   xmlns:dc="http://purl.org/dc/elements/1.1/"
   xmlns:cc="http://creativecommons.org/ns#"
   xmlns:rdf="http://www.w3.org/1999/02/22-rdf-syntax-ns#"
   xmlns:svg="http://www.w3.org/2000/svg"
   xmlns="http://www.w3.org/2000/svg"
   xmlns:sodipodi="http://sodipodi.sourceforge.net/DTD/sodipodi-0.dtd"
   xmlns:inkscape="http://www.inkscape.org/namespaces/inkscape"
   width="95.188972"
   height="66.688492"
   id="svg3012"
   version="1.1"
   inkscape:version="0.48.4 r9939"
   sodipodi:docname="herisson-large.svg">
  <defs
     id="defs3014" />
  <sodipodi:namedview
     id="base"
     pagecolor="#ffffff"
     bordercolor="#666666"
     borderopacity="1.0"
     inkscape:pageopacity="0.0"
     inkscape:pageshadow="2"
     inkscape:zoom="0.66060606"
     inkscape:cx="156.77511"
     inkscape:cy="-13.883547"
     inkscape:document-units="px"
     inkscape:current-layer="layer1"
     showgrid="false"
     fit-margin-top="3"
     fit-margin-left="3"
     fit-margin-right="3"
     fit-margin-bottom="3"
     inkscape:window-width="492"
     inkscape:window-height="365"
     inkscape:window-x="63"
     inkscape:window-y="25"
     inkscape:window-maximized="0"
     units="pt" />
  <metadata
     id="metadata3017">
    <rdf:RDF>
      <cc:Work
         rdf:about="">
        <dc:format>image/svg+xml</dc:format>
        <dc:type
           rdf:resource="http://purl.org/dc/dcmitype/StillImage" />
        <dc:title></dc:title>
      </cc:Work>
    </rdf:RDF>
  </metadata>
  <g
     inkscape:label="Calque 1"
     inkscape:groupmode="layer"
     id="layer1"
     transform="translate(-181.94354,-373.75899)">
    <path
       inkscape:connector-curvature="0"
       id="use3104"
       d="m 228.66276,435.77625 c -0.78777,-0.5091 -3.04365,-0.93221 -5.01307,-0.94025 -2.90288,-0.0119 -3.58077,-0.3655 -3.58077,-1.86801 0,-1.01937 0.42969,-2.11895 0.95487,-2.44353 1.50472,-0.92997 1.11469,-2.38718 -0.63895,-2.38718 -0.87659,0 -3.87793,-1.28908 -6.66963,-2.86462 -3.11199,-1.7563 -6.46681,-2.8713 -8.67105,-2.88191 -2.17162,-0.0104 -5.64068,-1.14476 -8.76086,-2.86462 -2.84111,-1.56602 -5.67493,-2.84731 -6.2974,-2.84731 -1.76742,0 -4.29236,-3.27396 -4.29236,-5.5657 0,-2.45419 2.52813,-2.77394 5.30801,-0.67133 2.70175,2.04349 4.45857,1.789 8.66003,-1.25453 2.67589,-1.9384 5.11165,-5.28607 8.49839,-11.68004 5.24413,-9.90064 10.96757,-16.6012 15.05701,-17.62758 3.7727,-0.94689 4.25371,0.1074 1.29853,2.84617 -1.39526,1.29309 -2.53684,2.66682 -2.53684,3.05275 0,0.38592 1.18164,-0.40914 2.62589,-1.7668 4.17935,-3.92879 9.0581,-6.47524 12.41333,-6.4791 3.78879,-0.004 3.88646,0.71415 0.47743,3.51255 l -2.62589,2.15556 3.70422,-1.84098 c 4.90885,-2.43966 11.59673,-3.38942 14.5124,-2.06095 3.12772,1.42508 2.91002,2.40512 -0.8351,3.75938 -1.73153,0.62612 -3.9874,1.80747 -5.01307,2.62522 -1.50985,1.20377 -1.23288,1.17937 1.45484,-0.12812 4.64089,-2.25767 12.83536,-2.12951 16.02324,0.25059 4.00208,2.98797 3.76279,4.12829 -0.8821,4.20362 -2.27577,0.0369 -4.99715,0.47322 -6.04751,0.96955 -1.56786,0.74087 -1.43324,0.80948 0.75192,0.38316 3.56891,-0.69628 10.21191,1.15732 12.82557,3.57872 2.85262,2.64279 1.97787,3.58719 -3.36898,3.63722 l -4.47929,0.0419 3.58982,1.28099 c 7.50967,2.67974 8.45234,5.31862 1.9007,5.32076 l -4.53564,0.002 3.28519,1.66955 c 4.85346,2.46649 4.85228,4.05667 -0.003,4.05667 l -4.03849,0 2.52661,2.34159 c 3.23929,3.00207 3.30077,4.74385 0.13943,3.9504 -1.76161,-0.44213 -2.38718,-0.21903 -2.38718,0.85136 0,0.79777 -0.61527,1.4505 -1.36728,1.4505 -0.75201,0 -2.24479,1.23233 -3.31728,2.7385 -1.0725,1.50618 -3.25021,3.27707 -4.83937,3.93533 -3.27125,1.35499 -3.54539,2.46826 -1.37192,5.57132 2.31136,3.29993 1.09918,4.9442 -3.63597,4.93202 -7.37327,-0.019 -11.24971,-1.02605 -11.24971,-2.92269 0,-0.95065 0.4297,-1.99401 0.95487,-2.3186 1.91681,-1.18465 0.88024,-2.38717 -2.05773,-2.38717 -2.85809,0 -2.93156,0.0895 -1.43232,1.74621 3.03932,3.35841 1.51315,5.91363 -3.51087,5.87814 -1.1387,-0.008 -2.71489,-0.43115 -3.50266,-0.94024 z m 22.91693,-1.85339 c 0,-1.65428 -1.68068,-1.96035 -2.87335,-0.52328 -0.98196,1.1832 -0.83987,1.4218 0.84668,1.4218 1.11466,0 2.02667,-0.40434 2.02667,-0.89852 z m -17.80661,-1.51304 c -0.43106,-1.12329 -0.86126,-1.2058 -1.87978,-0.36051 -1.77326,1.47168 -1.66698,1.8172 0.55898,1.8172 1.29259,0 1.70517,-0.45503 1.3208,-1.45669 z m 11.1225,0.55817 c 0,-1.58099 -1.39335,-1.8078 -2.66354,-0.43357 -1.02279,1.10657 -0.90155,1.33209 0.71615,1.33209 1.07107,0 1.94739,-0.40434 1.94739,-0.89852 z m -18.14256,-0.95488 c 0,-1.65427 -1.68067,-1.96035 -2.87334,-0.52326 -0.98196,1.18318 -0.83987,1.42179 0.84668,1.42179 1.11467,0 2.02666,-0.40433 2.02666,-0.89853 z m 2.48665,-3.61722 c -0.97065,-0.97064 -1.77153,0.4907 -0.97514,1.77929 0.60161,0.97341 0.82652,0.97416 1.14996,0.004 0.22114,-0.66343 0.14247,-1.46584 -0.17482,-1.78314 z m 17.26306,0.51722 c -0.30481,-0.76174 -0.53108,-0.53546 -0.57689,0.5769 -0.0415,1.0066 0.18422,1.57056 0.50152,1.25327 0.31729,-0.3173 0.35121,-1.14087 0.0754,-1.83017 z m 4.57801,-3.9771 c 4.72569,-1.4244 11.24235,-9.35635 10.41036,-12.67128 -0.34529,-1.37574 0.0321,-2.39608 1.10924,-2.99886 1.41959,-0.79443 1.30547,-0.99575 -0.87454,-1.54289 -1.37893,-0.34609 -2.50715,-1.03565 -2.50715,-1.53235 0,-1.27055 3.27774,-2.87725 5.90517,-2.89463 1.77797,-0.0118 1.9306,-0.19599 0.77894,-0.94025 -0.78777,-0.50909 -2.88123,-0.9322 -4.65211,-0.94025 -3.12413,-0.0142 -3.17744,-0.0785 -1.79398,-2.16308 0.78419,-1.18165 3.09249,-2.63038 5.12954,-3.21941 l 3.70372,-1.07094 -4.29692,-0.64106 c -2.66994,-0.39833 -6.19505,-0.13617 -9.31,0.69235 -2.75719,0.73338 -5.01307,1.06227 -5.01307,0.73088 0,-1.76028 3.58013,-5.26067 6.90132,-6.74761 2.08102,-0.9317 3.33924,-1.96867 2.79603,-2.30439 -1.99237,-1.23136 -9.09151,0.74959 -13.62885,3.803 -4.64086,3.12307 -4.66235,3.12718 -4.66235,0.89301 0,-3.58937 0.96854,-5.20281 4.65597,-7.75619 l 3.46044,-2.39619 -3.81948,0.65947 c -4.96596,0.85743 -6.58282,1.74508 -11.59624,6.36628 l -4.15915,3.83377 0,-3.27269 c 0,-1.79998 0.50848,-3.78116 1.12994,-4.40262 0.62146,-0.62146 0.86441,-1.39545 0.53989,-1.71997 -0.32452,-0.32451 -2.74507,1.42576 -5.37901,3.8895 -5.03488,4.70953 -7.31274,4.92504 -6.50044,0.61499 0.45839,-2.43225 0.38139,-2.40534 -2.36885,0.82808 -4.02347,4.73035 -6.75767,10.24334 -5.47378,11.03684 0.56704,0.35044 1.50916,0.15897 2.09362,-0.42548 0.58445,-0.58446 2.06157,-1.06264 3.28247,-1.06264 2.60653,0 4.08232,3.06464 4.08232,8.47735 0,2.72984 0.67946,4.22964 2.86462,6.32315 3.61781,3.46608 3.79553,7.34485 0.47743,10.41996 -1.31294,1.21679 -2.38717,2.48536 -2.38717,2.81902 0,1.08561 25.19532,0.49268 29.10207,-0.68487 z m -29.02862,-3.40938 c 1.53513,-1.53514 2.79116,-3.21325 2.79116,-3.72914 0,-0.51589 -1.50393,-2.73806 -3.34206,-4.93816 -2.69329,-3.22367 -3.34204,-4.8058 -3.34204,-8.1504 0,-4.86759 -1.65398,-6.44868 -3.63105,-3.47103 -1.47975,2.2286 -3.6261,2.74077 -4.2052,1.00345 -0.19603,-0.58809 -1.59291,0.59356 -3.10416,2.6259 -3.69412,4.96784 -7.0062,7.69365 -11.02163,9.0707 l -3.34206,1.14612 5.72923,2.70414 c 3.15108,1.48728 7.10551,2.70548 8.78764,2.70712 4.26341,0.005 7.92261,-1.85908 7.92261,-4.03412 0,-1.44736 0.44067,-1.68537 2.14847,-1.16042 3.79333,1.16601 3.81403,1.12045 -2.6259,5.77948 -1.64107,1.18724 -1.70824,1.51011 -0.47744,2.29495 2.49303,1.58971 4.83562,1.02821 7.71243,-1.84859 z m -13.741,-12.71634 c -0.61811,-1.61076 0.0507,-3.3061 1.34155,-3.3061 1.50385,0 1.88874,1.80303 0.99814,3.54974 -0.63511,1.24563 -1.88751,0.93472 -2.33969,-0.24364 z m 5.0737,-1.20275 c 0,-1.61267 0.43765,-2.40045 1.19359,-2.14846 0.65647,0.21882 1.19359,1.18563 1.19359,2.14846 0,0.96283 -0.53712,1.92964 -1.19359,2.14846 -0.75594,0.25198 -1.19359,-0.53579 -1.19359,-2.14846 z"
       style="color:#000000;fill:#3b842b;fill-opacity:1;fill-rule:nonzero;stroke-width:1;stroke-linecap:butt;stroke-linejoin:miter;stroke-miterlimit:4;stroke-opacity:1;stroke-dasharray:none;stroke-dashoffset:0;marker:none;visibility:visible;display:inline;overflow:visible;enable-background:accumulate"
       sodipodi:nodetypes="ccsssscsssssssssscscssssssssssscsccsscssssssssscsccccsssscsscsssssssscsccccccccssssscsscscsssssssscsscsscsssccsssssssssssssscscsssssssssscsss" />
  </g>
</svg>
